<svg xmlns="http://www.w3.org/2000/svg" viewBox="0 0 512 512" fill="none">
  <!-- Book -->
  <rect x="64" y="80" width="384" height="352" rx="16" stroke="#2563eb" stroke-width="24" fill="#eff6ff"/>
  <!-- Book spine -->
  <line x1="256" y1="80" x2="256" y2="432" stroke="#2563eb" stroke-width="16" stroke-linecap="round"/>
  <!-- Left page -->
  <path d="M124 160 L228 160 M124 224 L228 224 M124 288 L200 288" stroke="#2563eb" stroke-width="12" stroke-linecap="round" opacity="0.4"/>
  <!-- Right page -->
  <path d="M284 160 L388 160 M284 224 L388 224 M312 288 L388 288" stroke="#2563eb" stroke-width="12" stroke-linecap="round" opacity="0.4"/>
  <!-- Cap/graduation -->
  <path d="M256 64 L384 120 L256 176 L128 120 Z" stroke="#2563eb" stroke-width="16" stroke-linejoin="round" fill="#3b82f6"/>
  <line x1="256" y1="176" x2="256" y2="200" stroke="#2563eb" stroke-width="12" stroke-linecap="round"/>
  <path d="M320 136 C320 168 288 184 256 184 C224 184 192 168 192 136" stroke="#2563eb" stroke-width="10" fill="none" stroke-linecap="round"/>
  <!-- Tassel -->
  <circle cx="320" cy="104" r="6" fill="#eab308"/>
  <path d="M320 110 L312 126" stroke="#eab308" stroke-width="6" stroke-linecap="round"/>
</svg>
